HIERARCHY
ROOT hip
{
  OFFSET 0.0 0.0 0.0
  CHANNELS 6 Xposition Yposition Zposition Zrotation Yrotation Xrotation
  JOINT torso
  {
    OFFSET 0.0 0.0 0.0
    CHANNELS 3 Zrotation Xrotation Yrotation
    JOINT neck
    {
      OFFSET -8.059630999999968 325.56260699999996 64.6221310000002
      CHANNELS 3 Zrotation Xrotation Yrotation
      JOINT head
      {
        OFFSET 34.685424000000125 375.1179809999999 232.79357900000002
        CHANNELS 3 Zrotation Xrotation Yrotation
        End Site
        {
          OFFSET 0.0 0.0 0.0
        }
      }
    }
    JOINT left_collar
    {
      OFFSET -8.059630999999968 325.56260699999996 64.6221310000002
      CHANNELS 3 Zrotation Xrotation Yrotation
      JOINT left_upper_arm
      {
        OFFSET -124.124665 -15.370300999999927 25.582641999999964
        CHANNELS 3 Zrotation Xrotation Yrotation
        JOINT left_forearm
        {
          OFFSET -268.19913399999996 105.06054699999993 114.74548300000004
          CHANNELS 3 Zrotation Xrotation Yrotation
          JOINT left_hand
          {
            OFFSET -235.82003099999991 -10.198180999999977 -38.67455999999993
            CHANNELS 3 Zrotation Xrotation Yrotation
            End Site
            {
              OFFSET 0.0 0.0 0.0
            }
          }
        }
      }
    }
    JOINT right_collar
    {
      OFFSET -8.059630999999968 325.56260699999996 64.6221310000002
      CHANNELS 3 Zrotation Xrotation Yrotation
      JOINT right_upper_arm
      {
        OFFSET 162.73931899999997 -2.8598030000000563 26.244994999999903
        CHANNELS 3 Zrotation Xrotation Yrotation
        JOINT right_forearm
        {
          OFFSET 284.6506340000001 103.07031299999994 145.84521499999994
          CHANNELS 3 Zrotation Xrotation Yrotation
          JOINT right_hand
          {
            OFFSET 226.332337 -12.198241999999937 -49.27258299999994
            CHANNELS 3 Zrotation Xrotation Yrotation
            End Site
            {
              OFFSET 0.0 0.0 0.0
            }
          }
        }
      }
    }
  }
}
MOTION
Frames: 9
Frame Time: 0.01
417.5529679368222 239.85369993469115 139.98806814463086 -0.9855488089313813 -1.6415117494013982 8.337970391629216 -0.5943775204163154 -2.2294605620075396 0.07405181823711132 1.0128123087564682 0.08303201147321414 -0.6352588202117153 0.0 0.0 0.0 1.5946808393141614 0.1320181168366527 1.4269117661991557 61.797633855749524 19.091687257114668 19.7269242788389 38.50790950879006 -1.451555301110633 -12.956081481078078 0.0 0.0 0.0 -1.1877311774828294 0.1885033469447747 -0.10932222109135804 -52.67275879671293 21.500073072668037 -14.724787847866857 -50.46786498043858 -9.190632693965728 5.120382361046046 0.0 0.0 0.0
417.92481083250055 238.96144937503743 140.85849786642254 -0.9584005751059135 -1.576413366553055 8.314662574732676 -0.6237593937124262 -2.222250578419586 0.08056961150441602 0.9824598769894124 -0.17250286816329977 -0.594214296969501 0.0 0.0 0.0 1.5698585311523465 0.13676627145741854 1.357507663240349 61.65802639688722 19.054675587302395 19.776512680130608 38.72392048572713 -1.3934937164863876 -13.13187155482296 0.0 0.0 0.0 -1.172069839950631 0.18615499796410231 -0.10350720867110888 -52.627472146622985 21.47479514831643 -14.788558553790418 -50.65883506363891 -9.095065816914627 5.369754030373723 0.0 0.0 0.0
418.3003598284019 238.04943490286138 141.75258802619706 -0.93027801253923 -1.502230709030467 8.291306418750779 -0.6507141199058384 -2.2138341963238695 0.08658035766937851 0.9524459114491347 -0.42439711943290087 -0.5536726762409672 0.0 0.0 0.0 1.5455178531775202 0.14160001216130358 1.287951259658532 61.51820606483364 19.014466030241223 19.841707141239468 38.95554878088076 -1.3354751248773564 -13.307790921224393 0.0 0.0 0.0 -1.158709493127187 0.18411757864274897 -0.09972104012199125 -52.57250468737596 21.44839865884632 -14.842620318816358 -50.86108370297978 -8.991912939983463 5.6355252706976335 0.0 0.0 0.0
418.67430226263536 237.1154222802501 142.67251506470095 -0.9026934620021692 -1.4194019862786698 8.268385371733293 -0.6747261794008752 -2.2043127279630452 0.09197005544250456 0.9230650617972054 -0.67101487352952 -0.5139601528526605 0.0 0.0 0.0 1.5217529406013603 0.1465005768020452 1.2185192405383898 61.379918821057196 18.971634378319195 19.92160687828088 39.201048714524894 -1.2775189859739786 -13.483364394598311 0.0 0.0 0.0 -1.1475902497656154 0.18237580872994713 -0.09820159998916525 -52.50670818583612 21.420735031709924 -14.885866409728209 -51.075804545928804 -8.880142116727574 5.919668347272993 0.0 0.0 0.0
419.0409460883636 236.15692664391946 143.62106713470172 -0.8772486971987209 -1.328501790851087 8.246291097569049 -0.6952886950539039 -2.1937993871669366 0.09662675638336649 0.8945991592185537 -0.9108525355262933 -0.47538457613576907 0.0 0.0 0.0 1.498642192073324 0.15145195504658135 1.1494489421262626 61.24495478659957 18.926764635724176 20.015261719820618 39.45855964470785 -1.2196751081774715 -13.658068401750842 0.0 0.0 0.0 -1.1386202192775747 0.18090996063380327 -0.09915582069475948 -52.42896711141739 21.391658664256717 -14.917193319409035 -51.30396904996358 -8.758574901785048 6.224256382043042 0.0 0.0 0.0
419.39436833250323 235.17129410774635 144.6016255383372 -0.8556008099831596 -1.2302390048920526 8.225303334616749 -0.7119180827250176 -2.182416596627037 0.10044381062243625 0.867309784282989 -1.1425558964933493 -0.43822920365298407 0.0 0.0 0.0 1.4762510809462879 0.15644178219204566 1.0809351303999952 61.11511683903382 18.880438401573116 20.121682969033166 39.72611782378105 -1.1620286375776505 -13.83132543713733 0.0 0.0 0.0 -1.131685768108822 0.1796972353427894 -0.10276804969034593 -52.338233174524895 21.3610393648926 -14.935477225600884 -51.54622320790449 -8.625902832430421 6.551390870206532 0.0 0.0 0.0
419.72857329006325 234.1557786310105 145.61813245909167 -0.8394251436131355 -1.1254530141402028 8.205572892778102 -0.7241695132785434 -2.170293002511499 0.10332326693515717 0.8414309855763792 -1.364932476759208 -0.40274689389402785 0.0 0.0 0.0 1.4546355600268481 0.16146220906303207 1.0131278741454561 60.992186070509135 18.83322501421155 20.239850439224636 40.001669277354274 -1.104702760700311 -14.002503864000163 0.0 0.0 0.0 -1.1266607320546733 0.1787129909036025 -0.10920845744585328 -52.23356150147183 21.328773749088736 -14.939557422242979 -51.80278832527522 -8.48071089982275 6.903124122976009 0.0 0.0 0.0
420.0376556617389 233.10761178141456 146.67504583385318 -0.8303763611137421 -1.015108446282693 8.187108533729063 -0.7316525942936541 -2.1575602841471815 0.10517929617187405 0.8171622601680995 -1.5769587757355927 -0.36915484834489515 0.0 0.0 0.0 1.4338459070799765 0.1665106904803239 0.9461317521754437 60.87788474914679 18.78567271532825 20.36871537251247 40.283084122595405 -1.0478586497979208 -14.170923853674191 0.0 0.0 0.0 -1.1234141655535785 0.17793176682501746 -0.11864086949603787 -52.11414722898782 21.294795076369407 -14.928228108013872 -52.07336984559145 -8.321508583148823 7.28137878120546 0.0 0.0 0.0
420.3159636657186 232.02406358414882 147.77728242908046 -0.8300488166406589 -0.9002886495993521 8.169768305601703 -0.7340466107980217 -2.1443498757100614 0.10594149396733121 0.7946618819357708 -1.7777822776959462 -0.33762998535324157 0.0 0.0 0.0 1.413930835258224 0.1715906325740365 0.8800066080486288 60.7738376727928 18.738301057029066 20.50719924915246 40.56817261858009 -0.9916922587828805 -14.335869962952177 0.0 0.0 0.0 -1.1218164673439492 0.17732808582610624 -0.13122952315702566 -51.979360943922096 21.25908110422383 -14.900239094432846 -52.357078315451545 -8.14676877335651 7.68786696061854 0.0 0.0 0.0
